# xmcd
#
# Track frame offsets:
#	150
#	29633
#	64340
#	86438
#	117160
#	148255
#
# Disc length: 2432 seconds
#
# Revision: 1
# Processed by: cddbd v1.5.1PL0 Copyright (c) Steve Scherf et al.
# Submitted via: CDex 1.50Beta5
#
DISCID=55097e06
DTITLE=Eico - 桃色
DYEAR=1900
DGENRE=Jazz
TTITLE0=キミノカゼ
TTITLE1=Drop
TTITLE2=アイリィ
TTITLE3=桃色
TTITLE4=太陽の石（Sunaga T Experience's Du Bossa Mix）
TTITLE5=キミノカゼ（Tool For Steppin' Edit）
EXTD=
EXTT0=
EXTT1=
EXTT2=
EXTT3=
EXTT4=
EXTT5=
PLAYORDER=
